<svg viewBox="0 0 436 84" fill="none" xmlns="http://www.w3.org/2000/svg">
<path d="M149.8 13H125.8V79.5H114.9V13H90.8V3.7H149.7V13H149.8Z" fill="#231F20"/>
<path d="M195.3 63.3C192.3 74.2 182.1 80.3 169.5 80.3C152.3 80.3 141.2 69 141.2 52.3C141.2 35.6 152.5 24.3 168.8 24.3C184.2 24.3 194.7 34.1 194.7 48.6C194.7 50.2 194.5 51.3 194.2 53.1H151.7V54.4C151.7 65.7 158.8 71.9 169.5 71.9C177 71.9 182.8 68.6 185 63.4H195.3V63.3ZM152 45.7H184C184 38.2 177.4 32.7 168.5 32.7C160 32.8 153.6 37.9 152 45.7Z" fill="#231F20"/>
<path d="M229 24.3C245.8 24.3 258.2 35.5 258.2 52.3C258.2 69.1 245.9 80.3 229 80.3C212 80.3 199.8 69.1 199.8 52.3C199.8 35.5 212 24.3 229 24.3ZM229 71.3C240.3 71.3 247.5 63.8 247.5 52.3C247.5 40.8 240.1 33.4 229.1 33.4C217.8 33.4 210.5 40.9 210.5 52.4C210.5 63.9 217.8 71.3 229 71.3Z" fill="#231F20"/>
<path d="M294.8 24.9V34.5C294.2 34.4 292.7 34.3 291.6 34.3C280.9 34.3 276.5 42.4 276.5 52V79.3H266.1V25.3H275.1L276.3 34.3C278.8 27.8 284.4 24.5 291.2 24.5C292.7 24.5 294.1 24.7 294.8 24.9Z" fill="#231F20"/>
<path d="M350.4 63.3C347.4 74.2 337.2 80.3 324.6 80.3C307.4 80.3 296.3 69 296.3 52.3C296.3 35.6 307.6 24.3 323.9 24.3C339.3 24.3 349.8 34.1 349.8 48.6C349.8 50.2 349.6 51.3 349.3 53.1H306.8V54.4C306.8 65.7 313.9 71.9 324.6 71.9C332.1 71.9 337.9 68.6 340.1 63.4H350.4V63.3ZM307.1 45.7H339.1C339.1 38.2 332.5 32.7 323.6 32.7C315 32.8 308.6 37.9 307.1 45.7Z" fill="#231F20"/>
<path d="M436 43.7V79.3H425.6V44.6C425.6 36.6 421.4 33.2 414.9 33.2C406.5 33.2 402.1 39.1 402.1 48.6V79.4H392V46C392 37.2 388 33.1 381.2 33.1C373.1 33.1 368.6 38.9 368.6 47.6V79.2H358.2V25.2H367.2L368 32.4C371 27.2 376.8 24.1 383.6 24.1C391.4 24.1 397.4 28 399.6 34.4C402.3 28.1 409 24.1 417.4 24.1C429.4 24.3 436 31.6 436 43.7Z" fill="#231F20"/>
<path d="M0 0.300003V83.8H83.5V0.300003H0ZM76.7 46.9L60.1 7H76.7V46.9V46.9ZM72.5 54.7L29 72.8L10.9 29.2L54.5 11.1L72.5 54.7ZM46.7 7.10001L6.8 23.7V7.10001H46.7ZM6.8 37.1L23.4 77H6.8V37.1ZM36.8 76.9L76.7 60.3V76.9H36.8Z" fill="#231F20"/>
<path d="M55.2 31.8H45.1V60H38.3001V31.7H28.3V26H55.2V31.8V31.8Z" fill="#231F20"/>
</svg>
