<svg xmlns="http://www.w3.org/2000/svg" viewBox="0 0 552.67 129.68">
    <path d="M73.19,129.67q-34.35,0-68.69,0c-4.74,0-5.6-1.49-3.21-5.65Q35.42,64.65,69.59,5.28c2.37-4.12,4.54-4.11,6.87-.06L145.08,124.1c2.42,4.18,1.64,5.56-3.19,5.56ZM105,69.18c-9.37,5.66-18.36,11-27.25,16.56a4.29,4.29,0,0,0-1.42,3.2c-.1,9.58-.06,19.17,0,28.76,0,.84.12,1.69.21,2.83,13.14-1.88,23-8.11,28.88-19.74C110.58,90.49,110.72,79.94,105,69.18ZM69.9,50C54.64,51.35,45.08,59.6,39.24,72.69c-4.18,9.36-3.3,18.59,1.06,28,8.22-5,16-10,24.15-14.44,4.2-2.29,5.86-4.89,5.58-9.79C69.54,67.77,69.9,59.07,69.9,50Zm21.89,72.49h43.9L115.45,87.32C113.53,103.28,106.08,114.75,91.79,122.45ZM43.68,106.27c6.94,8.46,15.34,13.09,26,14.18V90.54Zm32.76-56V78.81l25-15.14C96,56,84.61,49.93,76.44,50.26ZM17.76,122l.24.48H52.69l-15-12.6ZM77,20.68l-.54.24v22.3l16.07,4.5ZM30,88.63,14.61,115.44l.45.47,19.51-11.79C33.05,98.92,31.61,94,30,88.63Zm23.79-41.3c5.06-1.22,9.87-2.32,14.63-3.62a2.75,2.75,0,0,0,1.37-2.09c.15-3,.07-6,.07-9V20.89a2.66,2.66,0,0,0-1.58,1.28Z"/>
    <path d="M448.67,56c11.71-16.68,38-16.59,48,5.13.58-.86,1.08-1.56,1.53-2.28,6.56-10.6,18.3-16.36,29.46-14.43,12.17,2.1,21.45,11.21,24,23.75a40.26,40.26,0,0,1,.89,7.73c.08,15.4,0,30.8,0,46.19a5.63,5.63,0,0,1-8.09,5.33c-2.37-1-3.33-2.8-3.32-5.46.08-15.1.06-30.2,0-45.29,0-8.64-3.19-15.69-11.07-19.85C517.27,50,501.26,59.68,501,74.59c-.25,15.79-.07,31.59-.09,47.39,0,4.28-1.53,5.84-5.69,5.9s-5.67-1.54-5.67-5.56q0-22.65,0-45.29c0-5.57-1.28-10.71-4.87-15.09-5.38-6.54-12.37-8.84-20.4-6.62-8.2,2.27-13.22,8-14.84,16.4A34.4,34.4,0,0,0,449,78c0,14.5,0,29,0,43.5,0,4-2.18,6.42-5.81,6.42-3.37,0-5.58-2.48-5.58-6.36q0-35.24,0-70.49c0-3.91,1.83-5.83,5.5-5.86s5.55,1.86,5.6,5.78C448.69,52.63,448.67,54.29,448.67,56Z"/>
    <path d="M377.89,89.88c-2.28,16.46,6.48,27.56,22.55,29.09a30.92,30.92,0,0,0,21.08-5.19c3.43-2.34,5.24-2.17,7.25.45s1.66,5.1-1.24,7.58a29.55,29.55,0,0,1-15.8,6.65c-11.62,1.5-22.77.43-32.61-6.71-7.73-5.6-12.24-13.17-12.61-22.77-.32-8.28-.52-16.6-.06-24.87.84-15.17,12.77-27.47,28.19-29.72S425.13,50.71,430.46,65a31.06,31.06,0,0,1,1.45,16c-.84,5.4-3.92,8.08-9.83,8.74a57,57,0,0,1-6,.22q-17.4,0-34.78,0Zm0-8.84c.17.1.34.28.5.28,12.7,0,25.39.08,38.08-.08,3.53,0,4.7-1.64,4.84-5.18.59-14.26-12.95-25.32-26.92-22C382.46,56.91,375.87,67.7,377.85,81Z"/>
    <path d="M196.8,89.88c-2.22,16.6,6.89,27.88,23,29.14a31.5,31.5,0,0,0,20.78-5.29c3.33-2.27,5.35-2,7.23.54s1.57,5.18-1.36,7.59c-6,5-13.24,6.78-20.89,7.11-10.15.43-19.71-1.29-28-7.62-7.52-5.73-11.8-13.28-12.13-22.74-.29-8.08-.35-16.2,0-24.28.57-14.9,12.35-27.29,28-29.91,15.3-2.55,30.73,6.21,36.06,20.62a30.28,30.28,0,0,1,1.37,16.25c-.95,5.16-4,7.75-9.86,8.37a65.9,65.9,0,0,1-6.89.21q-16.93,0-33.89,0Zm-.06-8.62c13.12,0,26.1.1,39.07-.08,3.24,0,4.35-1.74,4.36-5.27,0-9.16-4.09-16.17-12.15-20.17s-16-3.11-23.16,2.38C197.19,64,195.66,72.14,196.74,81.26Z"/>
    <path d="M319.41,86.21c0,4.39.41,8.83-.08,13.17-1.86,16.77-17.75,30.52-34,29.7-17.64-.88-32-15.72-32.07-33.33,0-7.68-.39-15.43.41-23C255,59.79,262.72,51,274.45,46.36s23-2.65,32.92,5.33c8.31,6.68,12.4,15.44,12.31,26.13,0,2.8,0,5.59,0,8.39Zm-54.81.28h0c0,3.5-.11,7,0,10.49.4,11.14,9.79,21,20.36,21.55,11.39.57,21.88-8,22.9-19.65a158.24,158.24,0,0,0,.18-23.95c-.63-9.76-9.07-18.69-17.9-20a22.12,22.12,0,0,0-25.56,21.67C264.55,79.89,264.6,83.19,264.6,86.49Z"/>
    <path d="M168.57,10.88v3.89q0,53.37,0,106.75c0,4.72-2.71,7-7.24,6.16-2.87-.54-4.39-2.16-4.36-5.16,0-2.7,0-5.4,0-8.09,0-33.29-.05-66.57.08-99.85,0-3.14-.89-3.84-3.86-3.77-8,.21-16,.09-24,.07-4,0-6-1.88-6-5.42s1.93-5.45,6-5.45q33.58,0,67.16,0c4.58,0,6.65,2.86,5.48,7.31-.71,2.71-2.54,3.56-5.13,3.55-8.2,0-16.39,0-24.59,0Z"/>
    <path d="M337.49,56.29c2.59-2.36,5.05-4.79,7.7-7,6.61-5.46,14.51-5.61,22.48-5.11,2.33.15,4,2.69,3.88,5.31a5,5,0,0,1-4.28,5,28,28,0,0,1-4.49.06c-14.43-.91-25.15,11.69-25,25.2.18,14.09-.15,28.17.14,42.25a5.86,5.86,0,0,1-7.86,5.49c-2.23-.84-3.63-2.3-3.63-4.89q0-36.26,0-72.52c0-3.24,1.95-4.86,5.5-4.88s5.38,1.66,5.48,4.89C337.54,52.25,337.49,54.41,337.49,56.29Z"/>
</svg>