<svg width="22" height="10" viewBox="0 0 22 10" fill="none"
     xmlns="http://www.w3.org/2000/svg">
  <path
    d="M1.54611 3.59268C1.54611 3.35398 1.74167 3.26218 2.06556 3.26218C2.53 3.26218 3.11667 3.40295 3.58111 3.65388V2.21559C3.07389 2.01361 2.57278 1.93405 2.06556 1.93405C0.825 1.93405 0 2.58281 0 3.66612C0 5.35536 2.32222 5.08606 2.32222 5.81439C2.32222 6.09593 2.07778 6.18773 1.73556 6.18773C1.22833 6.18773 0.580556 5.97964 0.0672222 5.6981V7.15476C0.635556 7.39957 1.21 7.50362 1.73556 7.50362C3.00667 7.50362 3.88056 6.87322 3.88056 5.77767C3.87444 3.95378 1.54611 4.27816 1.54611 3.59268ZM5.67722 0.709967L4.18611 1.02823L4.18 5.93068C4.18 6.8365 4.85833 7.50362 5.76278 7.50362C6.26389 7.50362 6.63056 7.41181 6.83222 7.30165V6.0592C6.63667 6.13877 5.67111 6.42031 5.67111 5.51449V3.34174H6.83222V2.0381H5.67111L5.67722 0.709967ZM8.73278 2.49101L8.635 2.0381H7.315V7.39345H8.84278V3.76405C9.20333 3.29278 9.81444 3.37847 10.0039 3.44579V2.0381C9.80833 1.96465 9.09333 1.83 8.73278 2.49101ZM10.3767 2.0381H11.9106V7.39345H10.3767V2.0381ZM10.3767 1.57294L11.9106 1.24244V0L10.3767 0.324382V1.57294ZM15.1006 1.93405C14.5017 1.93405 14.1167 2.21559 13.9028 2.41144L13.8233 2.03198H12.4789V9.16837L14.0067 8.84399L14.0128 7.11191C14.2328 7.27104 14.5567 7.4975 15.0944 7.4975C16.1883 7.4975 17.1844 6.61616 17.1844 4.67599C17.1783 2.90107 16.17 1.93405 15.1006 1.93405ZM14.7339 6.15101C14.3733 6.15101 14.1594 6.02248 14.0128 5.86335L14.0067 3.59268C14.1656 3.41519 14.3856 3.29278 14.7339 3.29278C15.29 3.29278 15.675 3.91706 15.675 4.71883C15.675 5.53897 15.2961 6.15101 14.7339 6.15101ZM22 4.7372C22 3.17037 21.2422 1.93405 19.7939 1.93405C18.3394 1.93405 17.4594 3.17037 17.4594 4.72495C17.4594 6.5672 18.4983 7.4975 19.9894 7.4975C20.7167 7.4975 21.2667 7.33225 21.6822 7.09967V5.87559C21.2667 6.08369 20.79 6.21221 20.185 6.21221C19.5922 6.21221 19.0667 6.00412 18.9994 5.28191H21.9878C21.9878 5.20235 22 4.88409 22 4.7372ZM18.9811 4.15576C18.9811 3.46415 19.4028 3.17649 19.7878 3.17649C20.1606 3.17649 20.5578 3.46415 20.5578 4.15576H18.9811Z"
    fill="white"/>
</svg>
