<?xml version="1.0" encoding="utf-8"?>
<!-- Generator: Adobe Illustrator 26.1.0, SVG Export Plug-In . SVG Version: 6.00 Build 0)  -->
<svg version="1.1" id="Layer_1" xmlns="http://www.w3.org/2000/svg" xmlns:xlink="http://www.w3.org/1999/xlink" x="0px" y="0px"
	 viewBox="0 0 500 500" style="enable-background:new 0 0 500 500;" xml:space="preserve">
<style type="text/css">
	.st0{fill:#231F20;}
	.st1{fill:#7452CB;}
</style>
<g>
	<g>
		<path class="st0" d="M181.8,221h-24v66.5h-10.9V221h-24.1v-9.3h58.9V221z"/>
		<path class="st0" d="M227.3,271.3c-3,10.9-13.2,17-25.8,17c-17.2,0-28.3-11.3-28.3-28c0-16.7,11.3-28,27.6-28
			c15.4,0,25.9,9.8,25.9,24.3c0,1.6-0.2,2.7-0.5,4.5h-42.5v1.3c0,11.3,7.1,17.5,17.8,17.5c7.5,0,13.3-3.3,15.5-8.5H227.3z
			 M184,253.7h32c0-7.5-6.6-13-15.5-13C192,240.8,185.6,245.9,184,253.7z"/>
		<path class="st0" d="M261,232.3c16.8,0,29.2,11.2,29.2,28c0,16.8-12.3,28-29.2,28c-17,0-29.2-11.2-29.2-28
			C231.8,243.5,244,232.3,261,232.3z M261,279.3c11.3,0,18.5-7.5,18.5-19c0-11.5-7.4-18.9-18.4-18.9c-11.3,0-18.6,7.5-18.6,19
			C242.5,271.9,249.8,279.3,261,279.3z"/>
		<path class="st0" d="M326.8,232.9v9.6c-0.6-0.1-2.1-0.2-3.2-0.2c-10.7,0-15.1,8.1-15.1,17.7v27.3h-10.4v-54h9l1.2,9
			c2.5-6.5,8.1-9.8,14.9-9.8C324.7,232.5,326.1,232.7,326.8,232.9z"/>
		<path class="st0" d="M382.4,271.3c-3,10.9-13.2,17-25.8,17c-17.2,0-28.3-11.3-28.3-28c0-16.7,11.3-28,27.6-28
			c15.4,0,25.9,9.8,25.9,24.3c0,1.6-0.2,2.7-0.5,4.5h-42.5v1.3c0,11.3,7.1,17.5,17.8,17.5c7.5,0,13.3-3.3,15.5-8.5H382.4z
			 M339.1,253.7h32c0-7.5-6.6-13-15.5-13C347,240.8,340.6,245.9,339.1,253.7z"/>
		<path class="st0" d="M468,251.7v35.6h-10.4v-34.7c0-8-4.2-11.4-10.7-11.4c-8.4,0-12.8,5.9-12.8,15.4v30.8H424V254
			c0-8.8-4-12.9-10.8-12.9c-8.1,0-12.6,5.8-12.6,14.5v31.6h-10.4v-54h9l0.8,7.2c3-5.2,8.8-8.3,15.6-8.3c7.8,0,13.8,3.9,16,10.3
			c2.7-6.3,9.4-10.3,17.8-10.3C461.4,232.3,468,239.6,468,251.7z"/>
	</g>
	<g>
		<path class="st1" d="M32,208.3v83.5h83.5v-83.5H32z M108.7,254.9l-16.6-39.9h16.6V254.9z M104.5,262.7L61,280.8l-18.1-43.6
			l43.6-18.1L104.5,262.7z M78.7,215.1l-39.9,16.6v-16.6H78.7z M38.8,245.1l16.6,39.9H38.8V245.1z M68.8,284.9l39.9-16.6v16.6H68.8z
			"/>
		<g>
			<path class="st1" d="M87.2,239.8H77.1V268h-6.8v-28.3H60.3V234h26.9V239.8z"/>
		</g>
	</g>
</g>
</svg>
