<svg width="24" height="25" viewBox="0 0 24 25" fill="none" xmlns="http://www.w3.org/2000/svg">
<path d="M12.5 22.002C9.46 22.002 7 19.542 7 16.502V6.00195C7 3.79195 8.79 2.00195 11 2.00195C13.21 2.00195 15 3.79195 15 6.00195V14.502C15 15.882 13.88 17.002 12.5 17.002C11.12 17.002 10 15.882 10 14.502V7.00195H12V14.592C12 15.142 13 15.142 13 14.592V6.00195C13 4.90195 12.1 4.00195 11 4.00195C9.9 4.00195 9 4.90195 9 6.00195V16.502C9 18.432 10.57 20.002 12.5 20.002C14.43 20.002 16 18.432 16 16.502V7.00195H18V16.502C18 19.542 15.54 22.002 12.5 22.002Z" fill="black"/>
</svg>
