<svg xmlns="http://www.w3.org/2000/svg" xmlns:xlink="http://www.w3.org/1999/xlink" width="1024" zoomAndPan="magnify" viewBox="0 0 768 767.999994" height="1024" preserveAspectRatio="xMidYMid meet" version="1.0"><defs><clipPath id="ef77c4ab06"><path d="M 61.878906 61.878906 L 706.121094 61.878906 L 706.121094 706.121094 L 61.878906 706.121094 Z M 61.878906 61.878906 " clip-rule="nonzero"/></clipPath><clipPath id="26acc6ec41"><path d="M 384 61.878906 C 206.097656 61.878906 61.878906 206.097656 61.878906 384 C 61.878906 561.902344 206.097656 706.121094 384 706.121094 C 561.902344 706.121094 706.121094 561.902344 706.121094 384 C 706.121094 206.097656 561.902344 61.878906 384 61.878906 Z M 384 61.878906 " clip-rule="nonzero"/></clipPath><clipPath id="76bef4fc12"><path d="M 61.878906 61.878906 L 706.117188 61.878906 L 706.117188 706.117188 L 61.878906 706.117188 Z M 61.878906 61.878906 " clip-rule="nonzero"/></clipPath><clipPath id="3b7ae94ce5"><path d="M 384 61.878906 C 206.097656 61.878906 61.878906 206.097656 61.878906 384 C 61.878906 561.902344 206.097656 706.117188 384 706.117188 C 561.902344 706.117188 706.117188 561.902344 706.117188 384 C 706.117188 206.097656 561.902344 61.878906 384 61.878906 Z M 384 61.878906 " clip-rule="nonzero"/></clipPath><clipPath id="2da253ecbe"><path d="M 254.144531 230 L 545.882812 230 L 545.882812 538 L 254.144531 538 Z M 254.144531 230 " clip-rule="nonzero"/></clipPath><clipPath id="056cb23bf7"><path d="M 532.375 405.414062 L 293.722656 534.511719 C 285.414062 539.007812 275.351562 538.796875 267.234375 533.960938 C 259.117188 529.121094 254.144531 520.371094 254.144531 510.921875 L 254.144531 257.082031 C 254.144531 247.632812 259.117188 238.882812 267.234375 234.042969 C 275.351562 229.207031 285.414062 228.996094 293.722656 233.492188 L 532.375 362.589844 C 540.234375 366.84375 545.132812 375.0625 545.132812 384 C 545.132812 392.941406 540.234375 401.160156 532.375 405.414062 Z M 532.375 405.414062 " clip-rule="nonzero"/></clipPath></defs><g clip-path="url(#ef77c4ab06)"><g clip-path="url(#26acc6ec41)"><path fill="#8d6fd9" d="M 61.878906 61.878906 L 706.121094 61.878906 L 706.121094 706.121094 L 61.878906 706.121094 Z M 61.878906 61.878906 " fill-opacity="1" fill-rule="nonzero"/></g></g><g clip-path="url(#76bef4fc12)"><g clip-path="url(#3b7ae94ce5)"><path stroke-linecap="butt" transform="matrix(0.75, 0, 0, 0.75, 61.880062, 61.880079)" fill="none" stroke-linejoin="miter" d="M 429.493273 -0.00156305 C 192.290136 -0.00156305 -0.00154038 192.290113 -0.00154038 429.49325 C -0.00154038 666.696387 192.290136 858.982854 429.493273 858.982854 C 666.696409 858.982854 858.982877 666.696387 858.982877 429.49325 C 858.982877 192.290113 666.696409 -0.00156305 429.493273 -0.00156305 Z M 429.493273 -0.00156305 " stroke="#ffffff" stroke-width="110" stroke-opacity="1" stroke-miterlimit="4"/></g></g><g clip-path="url(#2da253ecbe)"><g clip-path="url(#056cb23bf7)"><path fill="#ffffff" d="M 571.953125 212.082031 L 571.953125 555.960938 L 254.144531 555.960938 L 254.144531 212.082031 Z M 571.953125 212.082031 " fill-opacity="1" fill-rule="nonzero"/></g></g></svg>
