<svg xmlns="http://www.w3.org/2000/svg" width="1024" zoomAndPan="magnify"
     viewBox="0 0 768 767.999994" height="1024"
     preserveAspectRatio="xMidYMid meet" version="1.0">
  <defs>
    <clipPath id="c52a5c9961">
      <path
        d="M 61.878906 61.878906 L 706.121094 61.878906 L 706.121094 706.121094 L 61.878906 706.121094 Z M 61.878906 61.878906 "
        clip-rule="nonzero"/>
    </clipPath>
    <clipPath id="9b9942f431">
      <path
        d="M 384 61.878906 C 206.097656 61.878906 61.878906 206.097656 61.878906 384 C 61.878906 561.902344 206.097656 706.121094 384 706.121094 C 561.902344 706.121094 706.121094 561.902344 706.121094 384 C 706.121094 206.097656 561.902344 61.878906 384 61.878906 Z M 384 61.878906 "
        clip-rule="nonzero"/>
    </clipPath>
    <clipPath id="38a230b997">
      <path
        d="M 61.878906 61.878906 L 705.890625 61.878906 L 705.890625 705.890625 L 61.878906 705.890625 Z M 61.878906 61.878906 "
        clip-rule="nonzero"/>
    </clipPath>
    <clipPath id="8e3491c4cd">
      <path
        d="M 383.992188 61.878906 C 206.09375 61.878906 61.878906 206.09375 61.878906 383.992188 C 61.878906 561.890625 206.09375 706.105469 383.992188 706.105469 C 561.890625 706.105469 706.105469 561.890625 706.105469 383.992188 C 706.105469 206.09375 561.890625 61.878906 383.992188 61.878906 Z M 383.992188 61.878906 "
        clip-rule="nonzero"/>
    </clipPath>
    <clipPath id="f5fe7456f9">
      <path
        d="M 217.96875 187 L 588.957031 187 L 588.957031 581 L 217.96875 581 Z M 217.96875 187 "
        clip-rule="nonzero"/>
    </clipPath>
    <clipPath id="b62c582667">
      <path
        d="M 575.765625 405.410156 L 257.550781 577.550781 C 249.238281 582.046875 239.175781 581.835938 231.058594 577 C 222.941406 572.160156 217.96875 563.410156 217.96875 553.960938 L 217.96875 214.039062 C 217.96875 204.589844 222.941406 195.839844 231.058594 191 C 239.175781 186.164062 249.238281 185.953125 257.550781 190.449219 L 575.765625 362.589844 C 583.625 366.84375 588.523438 375.0625 588.523438 384 C 588.523438 392.9375 583.625 401.15625 575.765625 405.410156 Z M 575.765625 405.410156 "
        clip-rule="nonzero"/>
    </clipPath>
  </defs>
  <g clip-path="url(#c52a5c9961)">
    <g clip-path="url(#9b9942f431)">
      <path fill="#8d6fd9"
            d="M 61.878906 61.878906 L 706.121094 61.878906 L 706.121094 706.121094 L 61.878906 706.121094 Z M 61.878906 61.878906 "
            fill-opacity="1" fill-rule="nonzero"/>
    </g>
  </g>
  <g clip-path="url(#38a230b997)">
    <g clip-path="url(#8e3491c4cd)">
      <path stroke-linecap="butt"
            transform="matrix(1.143892, 0, 0, 1.143892, 61.880062, 61.880079)"
            fill="none" stroke-linejoin="miter"
            d="M 281.593193 -0.00102482 C 126.072848 -0.00102482 -0.00100996 126.072833 -0.00100996 281.593178 C -0.00100996 437.113523 126.072848 563.187381 281.593193 563.187381 C 437.113538 563.187381 563.187396 437.113523 563.187396 281.593178 C 563.187396 126.072833 437.113538 -0.00102482 281.593193 -0.00102482 Z M 281.593193 -0.00102482 "
            stroke="#ffffff" stroke-width="30.160194" stroke-opacity="1"
            stroke-miterlimit="4"/>
    </g>
  </g>
  <g clip-path="url(#f5fe7456f9)">
    <g clip-path="url(#b62c582667)">
      <path fill="#ffffff"
            d="M 615.34375 169.039062 L 615.34375 599.011719 L 217.96875 599.011719 L 217.96875 169.039062 Z M 615.34375 169.039062 "
            fill-opacity="1" fill-rule="nonzero"/>
    </g>
  </g>
</svg>
