<svg xmlns="http://www.w3.org/2000/svg" version="1.1" fill="#8c6fd8"
     viewBox="-5.0 -10.0 110.0 135.0">
  <g>
    <path
      d="m50 26.25c0.9375 0 1.5625-0.625 1.5625-1.5625v-18.438c0-0.9375-0.625-1.5625-1.5625-1.5625s-1.5625 0.625-1.5625 1.5625v18.438c0 0.78125 0.625 1.5625 1.5625 1.5625z"/>
    <path
      d="m36.25 28.125c0.3125 0.625 0.78125 0.9375 1.4062 0.9375 0.15625 0 0.46875 0 0.625-0.15625 0.78125-0.3125 1.0938-1.25 0.78125-2.0312l-7.8125-16.875c-0.3125-0.78125-1.25-1.0938-2.0312-0.78125s-1.0938 1.25-0.78125 2.0312z"/>
    <path
      d="m26.562 36.25c0.3125 0.3125 0.625 0.3125 0.9375 0.3125 0.46875 0 0.9375-0.15625 1.25-0.625 0.625-0.625 0.46875-1.7188-0.15625-2.1875l-14.062-11.875c-0.625-0.625-1.7188-0.46875-2.1875 0.15625-0.625 0.625-0.46875 1.7188 0.15625 2.1875z"/>
    <path
      d="m71.25 36.094c0.3125 0.3125 0.78125 0.625 1.25 0.625 0.3125 0 0.78125-0.15625 0.9375-0.3125l14.062-11.875c0.625-0.625 0.78125-1.5625 0.15625-2.1875s-1.5625-0.78125-2.1875-0.15625l-14.062 11.875c-0.625 0.3125-0.78125 1.4062-0.15625 2.0312z"/>
    <path
      d="m61.719 28.75c0.15625 0.15625 0.46875 0.15625 0.625 0.15625 0.625 0 1.0938-0.3125 1.4062-0.9375l7.8125-16.719c0.3125-0.78125 0-1.7188-0.78125-2.0312s-1.7188 0-2.0312 0.78125l-7.8125 16.719c-0.3125 0.78125 0 1.7188 0.78125 2.0312z"/>
    <path
      d="m62.188 70.156c0.46875-0.3125 0.625-0.78125 0.625-1.4062l-0.78125-11.406 7.3438-8.9062c0.3125-0.46875 0.46875-0.9375 0.3125-1.4062s-0.625-0.9375-1.0938-1.0938l-11.094-2.8125-6.0938-9.6875c-0.625-0.9375-2.0312-0.9375-2.6562 0l-6.0938 9.6875-11.094 2.8125c-0.46875 0.15625-0.9375 0.46875-1.0938 1.0938-0.15625 0.46875 0 1.0938 0.3125 1.4062l7.3438 8.9062-0.9375 11.406c0 0.46875 0.15625 1.0938 0.625 1.4062s0.9375 0.3125 1.5625 0.15625l10.625-4.2188 10.625 4.2188c0.15625 0 0.3125 0.15625 0.625 0.15625s0.625-0.15625 0.9375-0.3125zm-2.6562-3.5938-8.9062-3.5938c-0.15625 0-0.3125-0.15625-0.625-0.15625s-0.3125 0-0.625 0.15625l-8.9062 3.5938 0.625-9.6875c0-0.46875-0.15625-0.78125-0.3125-1.0938l-6.25-7.3438 9.375-2.3438c0.3125-0.15625 0.78125-0.3125 0.9375-0.625l5.1562-8.125 5.1562 8.125c0.15625 0.3125 0.46875 0.625 0.9375 0.625l9.375 2.3438-6.0938 7.3438c-0.3125 0.3125-0.3125 0.625-0.3125 1.0938z"/>
    <path
      d="m37.812 75.938-8.2812-2.1875-4.6875-7.3438c-0.625-0.9375-2.0312-0.9375-2.6562 0l-4.6875 7.3438-8.2812 2.1875c-0.46875 0.15625-0.9375 0.46875-1.0938 1.0938-0.15625 0.46875 0 1.0938 0.3125 1.4062l5.4688 6.7188-0.46875 8.5938c0 0.46875 0.15625 1.0938 0.625 1.4062s0.9375 0.3125 1.5625 0.15625l7.9688-3.125 7.9688 3.125c0.15625 0 0.3125 0.15625 0.625 0.15625s0.625-0.15625 0.9375-0.3125c0.46875-0.3125 0.625-0.78125 0.625-1.4062l-0.46875-8.5938 5.4688-6.7188c0.3125-0.46875 0.46875-0.9375 0.3125-1.4062-0.3125-0.625-0.78125-1.0938-1.25-1.0938zm-7.5 7.6562c-0.3125 0.3125-0.3125 0.625-0.3125 1.0938l0.46875 6.7188-6.25-2.5c-0.15625 0-0.3125-0.15625-0.625-0.15625s-0.3125 0-0.625 0.15625l-6.25 2.5 0.46875-6.7188c0-0.46875-0.15625-0.78125-0.3125-1.0938l-4.375-5.3125 6.5625-1.7188c0.3125-0.15625 0.78125-0.3125 0.9375-0.625l3.5938-5.7812 3.5938 5.7812c0.15625 0.3125 0.46875 0.625 0.9375 0.625l6.5625 1.7188z"/>
    <path
      d="m91.875 76.875c-0.15625-0.46875-0.625-0.9375-1.0938-1.0938l-8.2812-2.1875-4.6875-7.3438c-0.625-0.9375-2.0312-0.9375-2.6562 0l-4.6875 7.3438-8.2812 2.1875c-0.46875 0.15625-0.9375 0.46875-1.0938 1.0938-0.15625 0.46875 0 1.0938 0.3125 1.4062l5.4688 6.7188-0.46875 8.5938c0 0.46875 0.15625 1.0938 0.625 1.4062s0.9375 0.3125 1.5625 0.15625l7.9688-3.125 7.9688 3.125c0.15625 0 0.3125 0.15625 0.625 0.15625s0.625-0.15625 0.9375-0.3125c0.46875-0.3125 0.625-0.78125 0.625-1.4062l-0.46875-8.5938 5.4688-6.7188c0.3125-0.3125 0.46875-0.9375 0.15625-1.4062zm-8.4375 6.7188c-0.3125 0.3125-0.3125 0.625-0.3125 1.0938l0.46875 6.7188-6.25-2.5c-0.15625 0-0.3125-0.15625-0.625-0.15625s-0.3125 0-0.625 0.15625l-6.25 2.5 0.46875-6.7188c0-0.46875-0.15625-0.78125-0.3125-1.0938l-4.375-5.3125 6.5625-1.7188c0.3125-0.15625 0.78125-0.3125 0.9375-0.625l3.5938-5.7812 3.5938 5.7812c0.15625 0.3125 0.46875 0.625 0.9375 0.625l6.5625 1.7188z"/>
  </g>
</svg>
