<svg width="35" height="24" viewBox="0 0 23 16" fill="none"
     xmlns="http://www.w3.org/2000/svg">
  <rect x="0.5" y="0.5" width="22" height="15" rx="2" fill="white"
        stroke="#D9D9D9"/>
  <path
    d="M12.6364 12.9999C15.3061 13.013 17.7429 10.7708 17.7429 8.04325C17.7429 5.06072 15.3061 2.99889 12.6364 3H10.3387C7.6372 2.99889 5.41333 5.06128 5.41333 8.04325C5.41333 10.7714 7.6372 13.013 10.3387 12.9999H12.6364Z"
    fill="#0079BE"/>
  <path
    d="M10.3497 3.41331C7.8808 3.41415 5.88052 5.46262 5.8797 7.99093C5.88052 10.519 7.8808 12.5674 10.3497 12.5683C12.8188 12.5674 14.8199 10.519 14.8202 7.99093C14.8199 5.46262 12.8191 3.41415 10.3497 3.41331ZM7.51647 7.99093C7.51595 7.40636 7.68927 6.83523 8.01378 6.35219C8.33829 5.86914 8.7989 5.49664 9.3354 5.28338V10.6982C8.79886 10.4851 8.3382 10.1127 8.01367 9.62964C7.68914 9.14662 7.51585 8.57548 7.51647 7.99093ZM11.3637 10.6993V5.2831C11.9006 5.49606 12.3616 5.86853 12.6863 6.35173C13.0111 6.83494 13.1844 7.40637 13.1837 7.99121C13.1843 8.57601 13.0109 9.14739 12.6862 9.63058C12.3614 10.1138 11.9005 10.4863 11.3637 10.6993Z"
    fill="white"/>
  <path
    d="M12.6364 12.9999C15.3061 13.013 17.7429 10.7708 17.7429 8.04325C17.7429 5.06072 15.3061 2.99889 12.6364 3H10.3387C7.6372 2.99889 5.41333 5.06128 5.41333 8.04325C5.41333 10.7714 7.6372 13.013 10.3387 12.9999H12.6364Z"
    fill="#0079BE"/>
  <path
    d="M10.3497 3.41331C7.8808 3.41415 5.88052 5.46262 5.8797 7.99093C5.88052 10.519 7.8808 12.5674 10.3497 12.5683C12.8188 12.5674 14.8199 10.519 14.8202 7.99093C14.8199 5.46262 12.8191 3.41415 10.3497 3.41331ZM7.51647 7.99093C7.51595 7.40636 7.68927 6.83523 8.01378 6.35219C8.33829 5.86914 8.7989 5.49664 9.3354 5.28338V10.6982C8.79886 10.4851 8.3382 10.1127 8.01367 9.62964C7.68914 9.14662 7.51585 8.57548 7.51647 7.99093ZM11.3637 10.6993V5.2831C11.9006 5.49606 12.3616 5.86853 12.6863 6.35173C13.0111 6.83494 13.1844 7.40637 13.1837 7.99121C13.1843 8.57601 13.0109 9.14739 12.6862 9.63058C12.3614 10.1138 11.9005 10.4863 11.3637 10.6993Z"
    fill="white"/>
</svg>
