<svg width="35" height="24" viewBox="0 0 23 16" fill="none"
     xmlns="http://www.w3.org/2000/svg">
  <rect x="0.5" y="0.5" width="22" height="15" rx="2" fill="white"
        stroke="#D9D9D9"/>
  <path
    d="M9.34998 15.0333L22.0166 11.2V13.4833C22.0166 14.3394 21.3227 15.0333 20.4666 15.0333H9.34998Z"
    fill="#FD6020"/>
  <path fill-rule="evenodd" clip-rule="evenodd"
        d="M19.5958 6.07389C20.2926 6.07389 20.6759 6.39625 20.6759 7.00516C20.7107 7.47079 20.3972 7.86479 19.979 7.93643L20.9198 9.26169H20.1881L19.3867 7.97225H19.317V9.26169H18.7247V6.07389H19.5958ZM19.317 7.54244H19.4912C19.8745 7.54244 20.0487 7.36335 20.0487 7.04099C20.0487 6.75445 19.8745 6.57536 19.4912 6.57536H19.317V7.54244ZM16.6689 9.26169H18.3414V8.72442H17.2613V7.86479H18.3066V7.32752H17.2613V6.61116H18.3414V6.07389H16.6689V9.26169ZM14.9268 8.22297L14.1254 6.07389H13.4982L14.7874 9.33333H15.101L16.3902 6.07389H15.763L14.9268 8.22297ZM7.85363 7.68571C7.85363 8.58116 8.55049 9.33333 9.42157 9.33333C9.70032 9.33333 9.94422 9.2617 10.1881 9.15424V8.43789C10.0139 8.65279 9.77 8.79606 9.49126 8.79606C8.93377 8.79606 8.48081 8.36625 8.48081 7.79316V7.72153C8.44596 7.14844 8.89892 6.64699 9.45641 6.61117C9.73516 6.61117 10.0139 6.75444 10.1881 6.96935V6.25299C9.97906 6.10972 9.70032 6.0739 9.45641 6.0739C8.55049 6.00226 7.85363 6.75444 7.85363 7.68571ZM6.77349 7.29171C6.42506 7.14844 6.32053 7.0768 6.32053 6.89771C6.35537 6.6828 6.52959 6.50371 6.73864 6.53953C6.91286 6.53953 7.08708 6.64699 7.22645 6.79026L7.54004 6.36044C7.29613 6.14553 6.98255 6.00226 6.66896 6.00226C6.18115 5.96644 5.76304 6.36044 5.72819 6.86189V6.89771C5.72819 7.32753 5.90241 7.57825 6.4599 7.75734C6.59927 7.79316 6.73864 7.8648 6.87802 7.93643C6.98255 8.00807 7.05223 8.11552 7.05223 8.2588C7.05223 8.50952 6.84317 8.72443 6.63411 8.72443H6.59927C6.32053 8.72443 6.07662 8.54534 5.97209 8.29461L5.58882 8.68861C5.79788 9.08261 6.216 9.29752 6.63411 9.29752C7.19161 9.33333 7.64457 8.90352 7.67941 8.33043V8.22298C7.64457 7.79316 7.47035 7.57825 6.77349 7.29171ZM4.75258 9.26169H5.34492V6.07389H4.75258V9.26169ZM1.99997 6.07391H2.87105H3.04526C3.8815 6.10973 4.54352 6.82609 4.50868 7.68572C4.50868 8.15135 4.29962 8.58117 3.95119 8.90353C3.6376 9.15425 3.25432 9.29753 2.87105 9.26171H1.99997V6.07391ZM2.76652 8.72443C3.04527 8.76025 3.35886 8.65279 3.56792 8.4737C3.77698 8.25879 3.8815 7.97225 3.8815 7.64989C3.8815 7.36334 3.77698 7.0768 3.56792 6.86189C3.35886 6.6828 3.04527 6.57535 2.76652 6.61117H2.59231V8.72443H2.76652Z"
        fill="black"/>
  <path fill-rule="evenodd" clip-rule="evenodd"
        d="M11.9651 6C11.094 6 10.3623 6.71636 10.3623 7.64763C10.3623 8.54308 11.0592 9.29525 11.9651 9.33107C12.871 9.36689 13.5679 8.61471 13.6027 7.68344C13.5679 6.75218 12.871 6 11.9651 6V6Z"
        fill="#FD6020"/>
</svg>
