<svg width="35" height="24" viewBox="0 0 24 16" fill="none"
     xmlns="http://www.w3.org/2000/svg">
  <rect x="0.5" y="0.5" width="22.3333" height="15" rx="2" fill="white"
        stroke="#D9D9D9"/>
  <path
    d="M5.3804 4.76311C5.40013 3.96707 6.10975 3.27995 6.90052 3.26832C7.69014 3.26588 8.47988 3.26797 9.26951 3.26726C9.26734 5.93065 9.27378 8.59434 9.26625 11.2576C9.23583 12.044 8.53395 12.718 7.7518 12.7319C6.96068 12.7348 6.16947 12.7323 5.37832 12.7331V9.40843C6.14679 9.58997 6.95265 9.66725 7.73662 9.54684C8.20524 9.47144 8.71796 9.2413 8.87661 8.75513C8.99337 8.33926 8.92763 7.90159 8.94501 7.47477V6.48352H7.58828C7.58218 7.13911 7.60076 7.79583 7.57846 8.45062C7.54189 8.8531 7.14331 9.10882 6.76372 9.09516C6.29296 9.10014 5.3601 8.75399 5.3601 8.75399C5.35775 7.5257 5.37375 5.98745 5.3804 4.76323V4.76311Z"
    fill="url(#paint0_linear_356_31971)"/>
  <path
    d="M14.8788 8.19156C15.2213 8.19901 15.5657 8.17644 15.9067 8.20328C16.2522 8.26773 16.3354 8.79064 16.0285 8.9619C15.8191 9.07473 15.5704 9.00393 15.3434 9.02383H14.8788V8.19156ZM16.1047 7.24955C16.1808 7.5181 15.9219 7.75922 15.6633 7.72224H14.8788C14.8843 7.46899 14.8681 7.19411 14.8868 6.95419C15.201 6.96304 15.5182 6.93613 15.8307 6.96825C15.9649 7.00198 16.0773 7.11234 16.1047 7.24955ZM17.9927 3.26699C18.0073 3.77986 17.9948 4.31984 17.999 4.84311C17.9981 6.97054 18.0011 9.09791 17.9973 11.2255C17.9836 12.0228 17.277 12.7156 16.4852 12.7315C15.6926 12.7347 14.9 12.732 14.1073 12.7328V9.51662C14.9709 9.51217 15.835 9.52567 16.6983 9.50988C17.0988 9.48474 17.5375 9.22049 17.5561 8.77977C17.6033 8.33715 17.186 8.031 16.7897 7.98265C16.6375 7.97869 16.6419 7.93825 16.7897 7.92061C17.1676 7.83893 17.4644 7.44783 17.3532 7.05614C17.2585 6.64417 16.8031 6.48472 16.4244 6.48551C15.6521 6.48026 14.8797 6.48478 14.1075 6.48325C14.1125 5.88282 14.0971 5.28175 14.1158 4.68175C14.177 3.89884 14.9013 3.25319 15.682 3.2672C16.4523 3.26708 17.2226 3.26708 17.9927 3.26705V3.26699Z"
    fill="url(#paint1_linear_356_31971)"/>
  <path
    d="M9.77538 6.88309C9.70397 6.89824 9.76102 6.63982 9.74276 6.5418C9.74763 5.922 9.7326 5.30152 9.75106 4.68216C9.81207 3.89593 10.542 3.24867 11.3258 3.26708H13.6341C13.632 5.93047 13.6384 8.59415 13.6309 11.2574C13.6004 12.0438 12.8985 12.7178 12.1163 12.7317C11.3252 12.7347 10.5339 12.7322 9.74274 12.7329V9.09031C10.2831 9.53367 11.0175 9.60268 11.6907 9.60389C12.1982 9.60371 12.7027 9.52546 13.1956 9.40842V8.74109C12.6402 9.0179 11.9873 9.19373 11.3716 9.03469C10.9421 8.92779 10.6303 8.51271 10.6372 8.06947C10.5875 7.60853 10.8577 7.12189 11.3106 6.98486C11.873 6.8088 12.486 6.94345 13.0131 7.17236C13.1261 7.23149 13.2407 7.30484 13.1955 7.11606V6.59153C12.3139 6.38176 11.3756 6.30457 10.4898 6.53277C10.2334 6.6051 9.98365 6.71479 9.77538 6.88314V6.88309Z"
    fill="url(#paint2_linear_356_31971)"/>
  <defs>
    <linearGradient id="paint0_linear_356_31971" x1="5.29553" y1="8.09082"
                    x2="9.20571" y2="8.09082" gradientUnits="userSpaceOnUse">
      <stop stop-color="#0F6EB6"/>
      <stop offset="1" stop-color="#006DBA"/>
    </linearGradient>
    <linearGradient id="paint1_linear_356_31971" x1="14.0807" y1="7.79753"
                    x2="17.9745" y2="7.79753" gradientUnits="userSpaceOnUse">
      <stop stop-color="#58B03A"/>
      <stop offset="1" stop-color="#55B330"/>
    </linearGradient>
    <linearGradient id="paint2_linear_356_31971" x1="9.73703" y1="7.88931"
                    x2="13.6334" y2="7.88931" gradientUnits="userSpaceOnUse">
      <stop stop-color="#DE0D3D"/>
      <stop offset="1" stop-color="#E30138"/>
    </linearGradient>
  </defs>
</svg>
