<svg width="35" height="24" viewBox="0 0 23 16" fill="none"
     xmlns="http://www.w3.org/2000/svg">
  <rect x="0.5" y="0.5" width="22" height="15" rx="2" fill="white"
        stroke="#D9D9D9"/>
  <path
    d="M13.2765 7.945C13.2765 10.676 11.088 12.89 8.38825 12.89C5.68855 12.89 3.5 10.676 3.5 7.945C3.5 5.21395 5.68855 3 8.38825 3C11.088 3 13.2765 5.21395 13.2765 7.945Z"
    fill="#ED0006"/>
  <path
    d="M19.618 7.945C19.618 10.676 17.4295 12.89 14.7298 12.89C12.0301 12.89 9.84153 10.676 9.84153 7.945C9.84153 5.21395 12.0301 3 14.7298 3C17.4295 3 19.618 5.21395 19.618 7.945Z"
    fill="#0099DF"/>
  <path fill-rule="evenodd" clip-rule="evenodd"
        d="M11.559 11.7087C12.6101 10.8017 13.2765 9.45206 13.2765 7.94499C13.2765 6.43792 12.6101 5.08831 11.559 4.1813C10.508 5.08831 9.84158 6.43792 9.84158 7.94499C9.84158 9.45206 10.508 10.8017 11.559 11.7087Z"
        fill="#6C6BBD"/>
</svg>
